<?xml version="1.0" encoding="UTF-8"?>
<svg id="Camada_1" data-name="Camada 1" xmlns="http://www.w3.org/2000/svg" xmlns:xlink="http://www.w3.org/1999/xlink" viewBox="0 0 110.82 110.82">
  <defs>
    <style>
      .cls-1 {
        fill: url(#Gradiente_sem_nome_15-2);
      }

      .cls-2 {
        fill: url(#Gradiente_sem_nome_15);
      }

      .cls-3 {
        fill: url(#Gradiente_sem_nome_15-3);
      }
    </style>
    <linearGradient id="Gradiente_sem_nome_15" data-name="Gradiente sem nome 15" x1="58.88" y1="73.73" x2="83.52" y2="73.73" gradientUnits="userSpaceOnUse">
      <stop offset="0" stop-color="#f77d2b"/>
      <stop offset="1" stop-color="#fcc300"/>
    </linearGradient>
    <linearGradient id="Gradiente_sem_nome_15-2" data-name="Gradiente sem nome 15" x1="27.63" y1="42.56" x2="52.2" y2="42.56" xlink:href="#Gradiente_sem_nome_15"/>
    <linearGradient id="Gradiente_sem_nome_15-3" data-name="Gradiente sem nome 15" x1="27.1" y1="58.32" x2="83.73" y2="58.32" xlink:href="#Gradiente_sem_nome_15"/>
  </defs>
  <circle cx="55.41" cy="58.31" r="44.43"/>
  <g>
    <path class="cls-2" d="M67.88,61.66c.36-.37.94-.39,1.34-.07.03.02.06.05.09.07.96.64,9.39,9.16,9.92,10.04,1.93,3.28,2.62,9.19,4.21,12.98.12.3.11.63-.06.91h0c-.25.43-.78.6-1.24.42-3.91-1.56-9.79-2.23-13.06-4.16-.76-.45-7.91-7.4-9.96-9.78-.34-.39-.32-.98.04-1.35l8.72-9.06ZM69.53,79.98c-.53.52,1.28,1.05,1.97,1.33,1.86.78,4.49,1.87,4.93,1.95,1.61.3,4.28-2.1,4.35-3.45.02-.37-2.3-6.75-2.56-7.11-.98-1.42-1.07,1.54-1.67,1.63-1.56.23-3.36,3.33-3.85,4.54-.25.61-2.57.52-3.17,1.11Z"/>
    <path class="cls-1" d="M42.23,35.12l-4.41-4.41c-.54-.54-1.43-.54-1.97,0l-7.8,7.8c-.53.53-.55,1.39-.03,1.94l14.45,14.39,9.74-10.12-9.97-9.59Z"/>
    <path class="cls-3" d="M82.67,40.44c-.87-1.05-7.48-7.17-10.23-9.64-.68-.61-1.95-.65-2.65-.07-1.51,1.24-3.73,3.31-4.68,4.22-8.85,8.56-17.93,17.2-26.55,25.94-1.83,1.85-11.16,10.96-11.42,12.22-.14.68.05.99.3,1.56.54,1.26,10.99,11.47,12.07,11.63.42.06.79.05,1.15-.19l41.8-41.42c1.62-1.72,1.69-2.46.22-4.24ZM39.55,77.31l-6.73-6.83,2.94-2.9,3.84,3.89c1.6,1.62,1.58,4.23-.04,5.83ZM41.85,68.88l-3.65-3.71,2.94-2.9.76.77c1.6,1.62,1.58,4.23-.04,5.83ZM47.24,63.57l-3.65-3.71,2.94-2.9.76.77c1.6,1.62,1.58,4.23-.04,5.83ZM55.7,61.38l-6.73-6.83,2.94-2.9,3.84,3.89c1.6,1.62,1.58,4.23-.04,5.83ZM58,52.95h0l-3.65-3.71,2.94-2.9.76.77c1.6,1.62,1.58,4.23-.04,5.83ZM63.39,47.64l-3.65-3.71,2.94-2.9.76.77c1.6,1.62,1.58,4.23-.04,5.83ZM71.85,45.46l-6.73-6.83,2.94-2.9,3.84,3.89c1.6,1.62,1.58,4.23-.04,5.83Z"/>
  </g>
</svg>