<?xml version="1.0" encoding="UTF-8"?>
<svg id="Camada_1" data-name="Camada 1" xmlns="http://www.w3.org/2000/svg" xmlns:xlink="http://www.w3.org/1999/xlink" viewBox="0 0 110.82 110.82">
  <defs>
    <style>
      .cls-1 {
        fill: url(#Gradiente_sem_nome_15);
      }
    </style>
    <linearGradient id="Gradiente_sem_nome_15" data-name="Gradiente sem nome 15" x1="11.66" y1="54.44" x2="99.17" y2="54.44" gradientUnits="userSpaceOnUse">
      <stop offset="0" stop-color="#f77d2b"/>
      <stop offset="1" stop-color="#fcc300"/>
    </linearGradient>
  </defs>
  <circle class="cls-1" cx="55.41" cy="54.44" r="43.76"/>
  <g>
    <rect x="64.88" y="61.77" width="4.04" height="4.04"/>
    <rect x="64.88" y="55.33" width="4.04" height="4.04"/>
    <rect x="64.88" y="68.11" width="4.04" height="4.04"/>
    <rect x="33.65" y="76.57" width="4.04" height="4.04"/>
    <rect x="33.65" y="70.13" width="4.04" height="4.04"/>
    <rect x="33.65" y="82.91" width="4.04" height="4.04"/>
    <rect x="43.04" y="76.62" width="4.04" height="4.04"/>
    <rect x="43.04" y="70.18" width="4.04" height="4.04"/>
    <rect x="43.04" y="82.96" width="4.04" height="4.04"/>
    <rect x="64.88" y="42.03" width="4.04" height="4.04"/>
    <rect x="64.88" y="48.38" width="4.04" height="4.04"/>
    <rect x="64.86" y="81.3" width="4.04" height="4.04"/>
    <rect x="64.86" y="74.86" width="4.04" height="4.04"/>
    <rect x="56.47" y="45.82" width="4.04" height="4.04"/>
    <rect x="56.47" y="39.37" width="4.04" height="4.04"/>
    <rect x="56.47" y="52.16" width="4.04" height="4.04"/>
    <rect x="56.47" y="64.94" width="4.04" height="4.04"/>
    <rect x="56.47" y="58.5" width="4.04" height="4.04"/>
    <rect x="56.47" y="71.28" width="4.04" height="4.04"/>
    <rect x="73.24" y="45.82" width="4.04" height="4.04"/>
    <rect x="73.24" y="39.37" width="4.04" height="4.04"/>
    <rect x="73.24" y="52.16" width="4.04" height="4.04"/>
    <rect x="73.24" y="64.94" width="4.04" height="4.04"/>
    <rect x="73.24" y="58.5" width="4.04" height="4.04"/>
    <rect x="73.24" y="71.28" width="4.04" height="4.04"/>
    <path d="M55.41,10.02c-24.37,0-44.13,19.76-44.13,44.13,0,13.31,5.9,25.23,15.21,33.32v-20.78h23.92v-30.6h31.14v53.6c10.91-8.03,17.99-20.96,17.99-35.55,0-24.37-19.76-44.13-44.13-44.13Z"/>
  </g>
</svg>