<?xml version="1.0" encoding="UTF-8"?>
<svg id="Camada_1" data-name="Camada 1" xmlns="http://www.w3.org/2000/svg" xmlns:xlink="http://www.w3.org/1999/xlink" viewBox="0 0 110.82 110.82">
  <defs>
    <style>
      .cls-1 {
        fill: url(#Gradiente_sem_nome_15);
      }
    </style>
    <linearGradient id="Gradiente_sem_nome_15" data-name="Gradiente sem nome 15" x1="10.99" y1="55.94" x2="99.84" y2="55.94" gradientUnits="userSpaceOnUse">
      <stop offset="0" stop-color="#f77d2b"/>
      <stop offset="1" stop-color="#fcc300"/>
    </linearGradient>
  </defs>
  <circle class="cls-1" cx="55.41" cy="55.94" r="44.43"/>
  <g>
    <rect x="44.3" y="57.54" width="10.28" height="11.67"/>
    <rect x="44.3" y="71.99" width="10.28" height="11.67"/>
    <rect x="57.16" y="71.99" width="10.28" height="11.67"/>
    <rect x="57.16" y="57.54" width="10.28" height="11.67"/>
    <path d="M55.41,10.46c-24.84,0-44.98,20.14-44.98,44.98,0,16.47,8.86,30.87,22.08,38.71l-.05-36.51,22.84-14.07,22.67,14.07.02,36.69c13.39-7.79,22.4-22.29,22.4-38.89,0-24.84-20.14-44.98-44.98-44.98ZM86.79,57.56l-31.38-18.73-30.59,18.02c-3.1,1.79-5.85,2.66-7.52-.68h0c-1.66-3.35-.5-7.51,2.61-9.31l8.1-4.68v-18.61h9.45v13.15l15.65-9.05,2.3-1.39,2.3,1.39,33.2,19.2c3.1,1.79,4.27,5.96,2.61,9.31-1.66,3.35-3.62,3.19-6.73,1.39Z"/>
  </g>
</svg>