<?xml version="1.0" encoding="UTF-8"?>
<svg id="Camada_1" data-name="Camada 1" xmlns="http://www.w3.org/2000/svg" xmlns:xlink="http://www.w3.org/1999/xlink" viewBox="0 0 110.82 110.82">
  <defs>
    <style>
      .cls-1 {
        fill: url(#Gradiente_sem_nome_6);
      }
    </style>
    <linearGradient id="Gradiente_sem_nome_6" data-name="Gradiente sem nome 6" x1="15.55" y1="55.25" x2="102.93" y2="55.25" gradientUnits="userSpaceOnUse">
      <stop offset="0" stop-color="#f77d2b"/>
      <stop offset="1" stop-color="#fabd2c"/>
    </linearGradient>
  </defs>
  <path class="cls-1" d="M102.93,55.41c0,24.54-19.15,43.36-43.69,43.36S15.55,79.95,15.55,55.41,34.21,11.72,58.75,11.72s44.18,19.16,44.18,43.69Z"/>
  <path d="M88.51,62.43c-3.54-3.14-7.83-7.35-11.39-10.12-4.66-3.62-5.96.46-6.98.2l-4.86-4.86,2.23-2.78-6.79-1.66c.87-1.22-1.26-4.34-.89-5.79.32-1.28,2.78-4.85,4.09-5.78,1.02-.73,14.86,1.32,6.91-1.56-3.95-1.43-7.28-2.85-11.03-1.04-2.19,1.06-7.05,5.82-8.83,7.75-2.38,2.57-4.77,6.61-7.44,9.18-1.22.64-2.37-.29-3.61-.2-1.07.08-8.77,8.65-8.78,9.89,1.2,2.91,3.57,5.31,5.82,7.3,1.8,1.59,3.96,3.97,6.8,3.87s7.99-7.46,8.94-9.98c-1.63-1.69-.85-3.72,1.13-4.63s3.38,2.13,4.85,3.15l2.28-2.8,5.4,4.29c-3.43,4.98,3.05,9.44,6.53,12.6,2.21,2,5.82,4.47,8.08,6.48,3.42,3.06,7.04,6.12,10.21,9.43-3.8,5.33-9.84,8.85-15.9,11.18C37.77,110.92,2.32,74.22,18.27,37.25,27.94,14.85,54.15,5.28,76.52,14.66c22.09,9.27,33.3,35.95,23.08,57.76-2-1.79-4.01-3.86-6.03-5.63-1.68-1.47-3.4-2.9-5.06-4.37Z"/>
</svg>