<?xml version="1.0" encoding="UTF-8"?>
<svg id="Camada_1" data-name="Camada 1" xmlns="http://www.w3.org/2000/svg" xmlns:xlink="http://www.w3.org/1999/xlink" viewBox="0 0 110.82 110.82">
  <defs>
    <style>
      .cls-1 {
        fill: url(#Gradiente_sem_nome_6);
      }
    </style>
    <linearGradient id="Gradiente_sem_nome_6" data-name="Gradiente sem nome 6" x1="10.58" y1="55.41" x2="98.51" y2="55.41" gradientUnits="userSpaceOnUse">
      <stop offset="0" stop-color="#f77d2b"/>
      <stop offset="1" stop-color="#fabd2c"/>
    </linearGradient>
  </defs>
  <path class="cls-1" d="M98.51,55.41c0,24.54-19.89,44.43-44.43,44.43S10.58,80.62,10.58,56.08c0-16.62,18.96-45.1,43.5-45.1s44.43,19.89,44.43,44.43Z"/>
  <path d="M46.52,99.16s5.45-14.44,4.63-15.36l-2.98-.93,2.37-6.82,30.4,2.77c.59-.23.91-.62,1.22-1.14,2.25-3.76,4.09-10.73,5.43-14.97.6-1.9,2.6-6,2.04-8.03l-.85-.56c-.57-.38-1.31-.37-1.88.01h0c-.3.2-.54.5-.67.83l-7.86,19.63-35.45-3.1-2.99,8.23-3.41-1.05c-.82,2.82-1.86,7.27-2.96,10-.41,1.02-1.67,5.24-1.67,5.24-10.26-5.3-16.88-15.1-20.15-25.43-6.94-21.89,5.34-46.93,27.54-54.79,35.03-12.4,69.84,18.38,60.09,53.33-6.28,22.49-29.22,36.44-52.84,32.15ZM78.11,68.9l8.02-22.82-51.99-17.69-7.97,22.88,51.95,17.63Z"/>
  <path d="M79.55,57.6c.57-2.06,1.79-3.7,2.52-5.73-1.68,3.26-8.56,2.17-11.31,1.99-11.09-.73-13.89-13.1-24.54-15.22-4.12-.82-8.17.18-10.28-1.24-.85-.57-.9-1.51-1.05-3.16-.11.34-.14.47-.26.9-.13.47-.21.63-.36,1.09-.29.9-.6,1.8-.88,2.7-.55,1.76-1.29,3.41-2.01,5.1-.4.95-.77,1.91-1.03,2.91-.22.85-.55,2.06-.29,2.93.04.14.3.71.47.8.49.27,1.67.83,1.95.86.97.29,1.95.51,2.94.71,1.06.21,2.1.61,3.13.93,2.21.71,4.41,1.46,6.53,2.4.45.2.89.4,1.33.61,1.71.82,3.5,1.22,5.3,1.83l6.1,2.04c.93.31,1.86.62,2.79.94,1.42.48,2.84.95,4.28,1.37s2.97,1.23,4.32,1.69c1.91.65,3.41,1.44,5.53,2.25.5.33.72.42,1.22.51,1.47.27,1.74-1.8,1.95-2.85.36-1.73.6-2.46,1.06-4.18.13-.49.46-1.69.59-2.18Z"/>
</svg>