<?xml version="1.0" encoding="UTF-8"?>
<svg id="Camada_1" data-name="Camada 1" xmlns="http://www.w3.org/2000/svg" viewBox="0 0 110.82 110.82">
  <defs>
    <style>
      .cls-1 {
        fill: #878787;
      }
    </style>
  </defs>
  <path d="M46.56,101.15c-1.59-1.83,5.45-14.44,4.63-15.36l-2.98-.93,2.37-6.82,30.4,2.77c.59-.23.91-.62,1.22-1.14,2.25-3.76,3.62-10.91,4.97-15.16.6-1.9,3.35-6.14,2.51-7.85l-1.79-1.19-1.4.95-8.07,20.15-35.45-3.1-2.99,8.23-4.03.08c-.04,2.91-1.25,6.13-2.34,8.86-.41,1.02-1.37,4.55-2.64,4.27-8.93-6.19-15.98-14.35-19.25-24.68-6.94-21.89,5.41-46.71,27.61-54.56,35.03-12.4,69.84,18.38,60.09,53.33-6.28,22.49-29.22,36.44-52.84,32.15ZM78.14,70.89l8.02-22.82-51.99-17.69-7.97,22.88,51.95,17.63Z"/>
  <path class="cls-1" d="M75.94,53.96c-13.28-.87-15.09-12.46-27.84-15.01-4.93-.99-9.58-.14-12.31-1.48-2.88-1.42-2.35-4.69-1.91-6.25l-7.68,22.04,51.95,17.63,7.66-21.81c-2.01,3.91-6.57,5.11-9.87,4.89Z"/>
</svg>