<?xml version="1.0" encoding="UTF-8"?>
<svg id="Camada_1" data-name="Camada 1" xmlns="http://www.w3.org/2000/svg" viewBox="0 0 110.82 110.82">
  <path d="M75.3,85.6c-.74-.91-2.05-1.09-3.01-.42-.43.3-.95.44-1.47.4l-16.68-1.39c-.54-.04-1.04-.28-1.41-.67l-13.81-12.86,2.2-2.49c.71-.81.74-2.01.08-2.85l-8.03-10.15c-.72-.91-1.09-2.09-.89-3.24.25-1.49,1.26-1.94,2.28-1.98,1.25-.05,2.45.52,3.3,1.44l8.47,9.23c.81.88,2.16.96,3.07.2l4.92-4.14,6.34-5.74c.88-.8.98-2.15.22-3.07l-8-9.64c-.8-.96-1.21-2.23-.99-3.46.18-1,.76-1.94,2.27-1.99,1.17-.04,2.28.48,3.09,1.32l8.98,9.33c.74.77,1.93.9,2.83.31l2.93-1.94,10.71,15.5c.34.43.51.96.49,1.51l-.87,16.71c-.03.52-.24,1.02-.59,1.4h0c-.8.86-.8,2.18,0,3.04l6.83,7.28c7.64-7.99,12.33-18.82,12.33-30.74,0-24.59-19.93-44.52-44.52-44.52S11.82,31.9,11.82,56.49s19.93,44.52,44.52,44.52c9.33,0,17.99-2.88,25.15-7.78l-6.19-7.63Z"/>
</svg>