<?xml version="1.0" encoding="UTF-8"?>
<svg id="Camada_1" data-name="Camada 1" xmlns="http://www.w3.org/2000/svg" viewBox="0 0 110.82 110.82">
  <path d="M86.1,63.51c-3.54-3.14-7.83-7.35-11.39-10.12-4.66-3.62-5.96.46-6.98.2l-4.86-4.86,2.23-2.78-6.79-1.66c.87-1.22-1.26-4.34-.89-5.79.32-1.28,2.78-4.85,4.09-5.78,1.02-.73,14.86,1.32,6.91-1.56-3.95-1.43-7.28-2.85-11.03-1.04-2.19,1.06-7.05,5.82-8.83,7.75-2.38,2.57-4.77,6.61-7.44,9.18-1.22.64-2.37-.29-3.61-.2-1.07.08-8.77,8.65-8.78,9.89,1.2,2.91,3.57,5.31,5.82,7.3,1.8,1.59,3.96,3.97,6.8,3.87s7.99-7.46,8.94-9.98c-1.63-1.69-.85-3.72,1.13-4.63s3.38,2.13,4.85,3.15l2.28-2.8,5.4,4.29c-3.43,4.98,3.05,9.44,6.53,12.6,2.21,2,5.82,4.47,8.08,6.48,3.42,3.06,6.83,6.13,10,9.45-3.8,5.33-9.62,8.84-15.69,11.16C35.37,112-.09,75.3,15.87,38.33,25.53,15.93,51.75,6.36,74.11,15.74c22.09,9.27,32.99,36.03,22.77,57.84-2-1.79-3.7-3.94-5.72-5.71-1.68-1.47-3.4-2.9-5.06-4.37Z"/>
</svg>