<?xml version="1.0" encoding="UTF-8"?>
<svg id="Camada_1" data-name="Camada 1" xmlns="http://www.w3.org/2000/svg" xmlns:xlink="http://www.w3.org/1999/xlink" viewBox="0 0 110.82 110.82">
  <defs>
    <style>
      .cls-1 {
        fill: url(#Gradiente_sem_nome_9);
      }

      .cls-2 {
        fill: url(#Gradiente_sem_nome_9-2);
      }

      .cls-3 {
        fill: url(#Gradiente_sem_nome_9-3);
      }
    </style>
    <linearGradient id="Gradiente_sem_nome_9" data-name="Gradiente sem nome 9" x1="1012.34" y1="1673.11" x2="1085.46" y2="1673.11" gradientTransform="translate(-1779.85 -735.46) rotate(-34.56)" gradientUnits="userSpaceOnUse">
      <stop offset=".22" stop-color="#f77d2b"/>
      <stop offset="1" stop-color="#fabd2c"/>
    </linearGradient>
    <linearGradient id="Gradiente_sem_nome_9-2" data-name="Gradiente sem nome 9" x1="1884.61" y1="378.29" x2="1962.4" y2="378.29" gradientTransform="translate(-1377.57 -1283.49) rotate(31.37)" xlink:href="#Gradiente_sem_nome_9"/>
    <linearGradient id="Gradiente_sem_nome_9-3" data-name="Gradiente sem nome 9" x1="1287.1" y1="-746.1" x2="1341.43" y2="-746.1" gradientTransform="translate(-822.81 -1317.22) rotate(80.42) scale(1.15 .91)" xlink:href="#Gradiente_sem_nome_9"/>
  </defs>
  <path class="cls-1" d="M25.77,34.2C3.51,38.59-1.41,58.65,1.47,66.19c.88-4.64,3.64-9.53,7.71-13.13,5.35-4.74,11.54-8.72,19.56-11.32,8.09-2.62,16.93-3.53,25.82-3.22,6.02.21,13.57.92,18.76,3.09-12.47-7.62-30.27-10.83-47.56-7.41Z"/>
  <path class="cls-2" d="M80.79,33.61c-10.13-6.81-23.42-8.38-36.05-6.68-5.66.76-11.78,1.93-16.85,4.68,13.68-2.79,28.45-.51,41.07,5.32,7.37,3.4,14.1,8.45,18.71,15.14,2.48,3.61,4.31,7.63,6,11.67.51,1.22,1.68,4.6,1.83,6.42-.14-1.73.77-3.98.88-5.77.13-2.14.08-4.33-.2-6.46-.5-3.79-1.8-7.53-3.54-10.92-2.97-5.78-7.06-10.18-11.85-13.41Z"/>
  <path class="cls-3" d="M109.91,62.97c2.52-17.68-20.49-31.48-30.83-33.4,5.41,3.01,10.47,7.46,13.46,12.14,3.94,6.16,6.64,12.51,6.99,19.4.35,6.96-1.69,13.55-5.24,19.54-2.4,4.06-5.97,8.92-10.5,11.39,13.86-4.68,24.16-15.34,26.12-29.08Z"/>
</svg>