<?xml version="1.0" encoding="UTF-8"?>
<svg id="Camada_1" data-name="Camada 1" xmlns="http://www.w3.org/2000/svg" xmlns:xlink="http://www.w3.org/1999/xlink" viewBox="0 0 110.82 110.82">
  <defs>
    <style>
      .cls-1 {
        fill: none;
        stroke: url(#Gradiente_sem_nome_6);
        stroke-miterlimit: 10;
        stroke-width: 4px;
      }
    </style>
    <linearGradient id="Gradiente_sem_nome_6" data-name="Gradiente sem nome 6" x1="27.02" y1="54.91" x2="86.37" y2="54.91" gradientUnits="userSpaceOnUse">
      <stop offset="0" stop-color="#f77d2b"/>
      <stop offset="1" stop-color="#fabd2c"/>
    </linearGradient>
  </defs>
  <path d="M55.41,10.81c-24.54,0-44.43,19.89-44.43,44.43s19.89,44.43,44.43,44.43,44.43-19.89,44.43-44.43S79.95,10.81,55.41,10.81Z"/>
  <path class="cls-1" d="M45.07,47.49c1.22-2.63,5.53-2.9,4.56-7.64-.29-1.42-6.35-10.03-7.49-10.94-8.08-6.47-15.1,3.29-12.61,13.13,3.47,13.76,27.92,38.61,42.01,40.85,6.72,1.07,15.83-6.16,11.85-12.67-.67-1.1-9.78-7.56-11.3-7.89-6.36-1.36-6.64,4.81-10.19,5-6.42.35-20.07-12.85-16.83-19.85Z"/>
</svg>