<?xml version="1.0" encoding="UTF-8"?>
<svg id="Camada_1" data-name="Camada 1" xmlns="http://www.w3.org/2000/svg" xmlns:xlink="http://www.w3.org/1999/xlink" viewBox="0 0 110.82 110.82">
  <defs>
    <style>
      .cls-1 {
        fill: url(#Gradiente_sem_nome_6-3);
      }

      .cls-2 {
        fill: url(#Gradiente_sem_nome_6-2);
      }

      .cls-3 {
        fill: url(#Gradiente_sem_nome_6);
      }
    </style>
    <linearGradient id="Gradiente_sem_nome_6" data-name="Gradiente sem nome 6" x1="26.07" y1="59.01" x2="85.98" y2="59.01" gradientUnits="userSpaceOnUse">
      <stop offset="0" stop-color="#f77d2b"/>
      <stop offset="1" stop-color="#fabd2c"/>
    </linearGradient>
    <linearGradient id="Gradiente_sem_nome_6-2" data-name="Gradiente sem nome 6" x1="66.97" y1="43.86" x2="75.28" y2="43.86" xlink:href="#Gradiente_sem_nome_6"/>
    <linearGradient id="Gradiente_sem_nome_6-3" data-name="Gradiente sem nome 6" x1="40.36" y1="59.45" x2="70.73" y2="59.45" xlink:href="#Gradiente_sem_nome_6"/>
  </defs>
  <circle cx="56.03" cy="59.01" r="44.43"/>
  <g>
    <path class="cls-3" d="M85.42,44.27c-.77-6.87-7.11-13.69-13.98-14.63-6.15-.85-24.56-.77-30.72.14-6.34.93-12.85,6.63-13.93,13.09-.99,5.89-.89,24.64-.19,30.81.71,6.29,6.76,13.72,13.18,14.63,6.36.9,25.19.81,31.72.07,6.46-.73,12.97-7.62,13.84-13.98.85-6.25.79-23.76.07-30.13ZM79.86,72.09c-.58,5.4-4.33,10.07-9.92,10.74-5.8.7-22.05.7-27.85,0-5.6-.67-9.31-5.32-9.92-10.74-.63-5.63-.68-20.64.07-26.16.68-5.02,4.16-9.58,9.25-10.62,4.32-.88,23.71-.77,28.36-.11,5.28.75,9.38,5.39,10.02,10.64.7,5.71.61,20.43-.02,26.25Z"/>
    <circle class="cls-2" cx="71.13" cy="43.86" r="4.16"/>
    <path class="cls-1" d="M52.13,44.54c-18.06,3.12-14.97,33.52,6.78,29.81,18.22-3.11,14.95-33.57-6.78-29.81ZM55.54,69.84c-5.77,0-10.45-4.68-10.45-10.45s4.68-10.45,10.45-10.45,10.45,4.68,10.45,10.45-4.68,10.45-10.45,10.45Z"/>
  </g>
</svg>