<?xml version="1.0" encoding="UTF-8"?>
<svg id="Camada_1" data-name="Camada 1" xmlns="http://www.w3.org/2000/svg" xmlns:xlink="http://www.w3.org/1999/xlink" viewBox="0 0 110.82 110.82">
  <defs>
    <style>
      .cls-1 {
        fill: url(#Gradiente_sem_nome_6-2);
      }

      .cls-2 {
        fill: url(#Gradiente_sem_nome_6);
      }
    </style>
    <linearGradient id="Gradiente_sem_nome_6" data-name="Gradiente sem nome 6" x1="44.48" y1="56.7" x2="65.37" y2="56.7" gradientTransform="translate(5.85 -5.14) rotate(5.66)" gradientUnits="userSpaceOnUse">
      <stop offset="0" stop-color="#f77d2b"/>
      <stop offset="1" stop-color="#fabd2c"/>
    </linearGradient>
    <linearGradient id="Gradiente_sem_nome_6-2" data-name="Gradiente sem nome 6" x1="31.07" y1="56.33" x2="79.75" y2="56.33" gradientTransform="matrix(1,0,0,1,0,0)" xlink:href="#Gradiente_sem_nome_6"/>
  </defs>
  <circle cx="55.41" cy="56.33" r="44.43"/>
  <g>
    <circle class="cls-2" cx="54.93" cy="56.7" r="10.45" transform="translate(-5.32 5.69) rotate(-5.66)"/>
    <path class="cls-1" d="M69.24,32.51c-4.65-.66-24.04-.77-28.36.11-5.09,1.04-8.56,5.6-9.25,10.62-.75,5.52-.7,20.53-.07,26.16.61,5.43,4.32,10.07,9.92,10.74,5.8.7,22.05.7,27.85,0,5.58-.67,9.34-5.34,9.92-10.74.62-5.81.72-20.53.02-26.25-.64-5.25-4.75-9.89-10.02-10.64ZM58.29,71.66c-21.75,3.71-24.84-26.69-6.78-29.81,21.73-3.76,24.99,26.71,6.78,29.81ZM70.51,45.32c-2.3,0-4.16-1.86-4.16-4.16s1.86-4.16,4.16-4.16,4.16,1.86,4.16,4.16-1.86,4.16-4.16,4.16Z"/>
  </g>
</svg>