<?xml version="1.0" encoding="UTF-8"?>
<svg id="Camada_1" data-name="Camada 1" xmlns="http://www.w3.org/2000/svg" viewBox="0 0 110.82 110.82">
  <defs>
    <style>
      .cls-1 {
        fill: #fff;
      }
    </style>
  </defs>
  <path class="cls-1" d="M56.55,13.26c-18.21-6.05-35.43,11.76-38.67,20.68,3.81-4.24,9.07-7.85,14.33-9.55,6.93-2.24,13.89-3.32,21.16-2.16,7.33,1.17,13.98,4.42,19.84,8.9,3.96,3.03,8.62,7.3,10.66,11.91-3.24-13.5-13.16-25.08-27.31-29.78Z"/>
  <path class="cls-1" d="M97.15,37.95c-1.91-19.09-25.19-27.55-34.65-26.88,5.42,1.75,10.87,5.08,14.57,9.18,4.87,5.41,8.7,11.33,10.6,18.44,1.92,7.17,1.67,14.57-.04,21.74-1.16,4.85-3.14,10.85-6.52,14.59,11.01-8.47,17.53-22.25,16.04-37.08Z"/>
  <path class="cls-1" d="M99.93,83.27c14.71-16.63,7.43-42.55,1.05-49.85,1.88,5.86,2.46,12.99,1.32,19.29-1.51,8.29-4.08,16.13-8.82,23.3-4.78,7.24-11.09,12.86-18.11,17.11-4.75,2.87-10.96,5.95-16.16,6.11,13.81,2.43,29.29-3.04,40.73-15.96Z"/>
  <path class="cls-1" d="M20.43,51.27l21.49,25.96,22.42-25.96h17.42l-30.55,35.37c-2.07,2.28-5,4.39-9.57,4.39s-7.35-1.93-9.42-4.39L2.29,51.27h18.13Z"/>
</svg>