<?xml version="1.0" encoding="UTF-8"?>
<svg id="Camada_1" data-name="Camada 1" xmlns="http://www.w3.org/2000/svg" viewBox="0 0 110.82 110.82">
  <defs>
    <style>
      .cls-1 {
        fill: #f77d2b;
      }
    </style>
  </defs>
  <path class="cls-1" d="M85.06,78.81c22.25-4.39,27.18-24.45,24.3-31.99-.88,4.64-3.64,9.53-7.71,13.13-5.35,4.74-11.54,8.72-19.56,11.32-8.09,2.62-16.93,3.53-25.82,3.22-6.02-.21-13.57-.92-18.76-3.09,12.47,7.62,30.27,10.83,47.56,7.41Z"/>
  <g>
    <path class="cls-1" d="M25.74,42.96l7.79,9.39,8.12-9.39h6.31l-11.07,12.8c-.75.83-1.81,1.59-3.47,1.59s-2.67-.7-3.42-1.59l-10.84-12.8h6.57Z"/>
    <path class="cls-1" d="M58.55,48.23c1.53,2.18,2.2,3.24,2.79,4.23.57-.99,1.24-2.03,2.77-4.21l2.77-4.02c.62-.91,1.55-1.5,2.95-1.5s2.54.63,3,1.95l4.37,12.44h-5.33l-1.63-4.93c-.54-1.61-.91-2.75-1.19-3.89-.57.99-1.22,2.07-2.41,3.91l-2.33,3.55c-.91,1.4-1.79,1.59-3.08,1.59s-2.17-.19-3.08-1.59l-2.33-3.58c-1.27-1.95-1.89-2.94-2.43-3.89-.26,1.12-.65,2.31-1.16,3.89l-1.63,4.93h-5.25l4.48-12.44c.47-1.31,1.68-1.95,3.03-1.95s2.3.57,2.92,1.5l2.77,4Z"/>
    <path class="cls-1" d="M95.21,48.61c4.22,0,6.49,1.29,6.49,3.87,0,2.9-2.15,4.63-7.43,4.63h-16.12l3.44-3.64h13.09c1.27,0,1.84-.3,1.84-1.04s-.57-1.02-1.84-1.02h-9.42c-4.45,0-6.49-1.63-6.49-4.06,0-2.67,2.17-4.4,7.43-4.4h15.03l-3.44,3.68h-12.01c-1.24,0-1.84.25-1.84.97s.6.99,1.84.99h9.42Z"/>
  </g>
  <path class="cls-1" d="M30.04,79.4c10.13,6.81,23.42,8.38,36.05,6.68,5.66-.76,11.78-1.93,16.85-4.68-13.68,2.79-28.45.51-41.07-5.32-7.37-3.4-14.1-8.45-18.71-15.14-2.48-3.61-4.31-7.63-6-11.67-.51-1.22-1.68-4.6-1.83-6.42.14,1.73-.77,3.98-.88,5.77-.13,2.14-.08,4.33.2,6.46.5,3.79,1.8,7.53,3.54,10.92,2.97,5.78,7.06,10.18,11.85,13.41Z"/>
  <path class="cls-1" d="M.91,50.05c-2.52,17.68,20.49,31.48,30.83,33.4-5.41-3.01-10.47-7.46-13.46-12.14-3.94-6.16-6.64-12.51-6.99-19.4-.35-6.96,1.69-13.55,5.24-19.54,2.4-4.06,5.97-8.92,10.5-11.39C13.17,25.65,2.87,36.31.91,50.05Z"/>
</svg>