<?xml version="1.0" encoding="UTF-8"?>
<svg id="Camada_1" data-name="Camada 1" xmlns="http://www.w3.org/2000/svg" xmlns:xlink="http://www.w3.org/1999/xlink" viewBox="0 0 110.82 110.82">
  <defs>
    <style>
      .cls-1 {
        fill: url(#Gradiente_sem_nome_6);
      }
    </style>
    <linearGradient id="Gradiente_sem_nome_6" data-name="Gradiente sem nome 6" x1="10.99" y1="58.31" x2="99.84" y2="58.31" gradientUnits="userSpaceOnUse">
      <stop offset="0" stop-color="#f77d2b"/>
      <stop offset="1" stop-color="#fabd2c"/>
    </linearGradient>
  </defs>
  <circle class="cls-1" cx="55.41" cy="58.31" r="44.43"/>
  <path d="M55.41,13.88c-24.54,0-44.43,19.89-44.43,44.43s19.89,44.43,44.43,44.43,44.43-19.89,44.43-44.43S79.95,13.88,55.41,13.88ZM69.57,84.99c-13.44-2.14-36.75-25.84-40.06-38.96-2.37-9.38,4.32-18.69,12.03-12.52,1.08.87,6.86,9.08,7.14,10.44.92,4.51-3.18,4.77-4.35,7.28-3.09,6.67,9.92,19.27,16.04,18.93,3.39-.19,3.66-6.07,9.72-4.77,1.45.31,10.14,6.47,10.78,7.52,3.8,6.2-4.89,13.1-11.3,12.08Z"/>
</svg>