<?xml version="1.0" encoding="UTF-8"?>
<svg id="Camada_1" data-name="Camada 1" xmlns="http://www.w3.org/2000/svg" viewBox="0 0 110.82 110.82">
  <circle cx="54.93" cy="56.7" r="10.45" transform="translate(-5.32 5.69) rotate(-5.66)"/>
  <path d="M69.24,32.51c-4.65-.66-24.04-.77-28.36.11-5.09,1.04-8.56,5.6-9.25,10.62-.75,5.52-.7,20.53-.07,26.16.61,5.43,4.32,10.07,9.92,10.74,5.8.7,22.05.7,27.85,0,5.58-.67,9.34-5.34,9.92-10.74.62-5.81.72-20.53.02-26.25-.64-5.25-4.75-9.89-10.02-10.64ZM58.29,71.66c-21.75,3.71-24.84-26.69-6.78-29.81,21.73-3.76,24.99,26.71,6.78,29.81ZM70.51,45.32c-2.3,0-4.16-1.86-4.16-4.16s1.86-4.16,4.16-4.16,4.16,1.86,4.16,4.16-1.86,4.16-4.16,4.16Z"/>
</svg>