<?xml version="1.0" encoding="UTF-8"?>
<svg id="Camada_1" data-name="Camada 1" xmlns="http://www.w3.org/2000/svg" viewBox="0 0 110.82 110.82">
  <path d="M32.23,77.65c-.41-.41,2.25-7.25,2.16-8.88s-2.62-5.09-3.28-7.32c-7.79-26.52,26.62-45.13,44.17-23.05,14.66,18.46-1.76,44.47-24.52,40.57-2.96-.51-8.05-3.61-9.5-3.63-1.55-.03-8.57,2.77-9.03,2.32ZM47.3,39.79c-3.02-1.87-7.01,2.36-7.45,5.42-1.58,10.94,18.91,28.88,28.67,21.87,1.87-1.34,2.99-3.94,2.45-6.21l-7.81-3.37c-1.99.38-2.03,4.74-4.98,3.98-2.54-.65-10.02-6.68-9.88-9.59.07-1.41,1.82-2.2,1.65-4.95-.06-.91-2.33-6.96-2.65-7.16Z"/>
</svg>