<?xml version="1.0" encoding="UTF-8"?>
<svg id="Camada_1" data-name="Camada 1" xmlns="http://www.w3.org/2000/svg" viewBox="0 0 110.82 110.82">
  <path d="M84.81,40.68c-.77-6.87-7.11-13.69-13.98-14.63-6.15-.85-24.56-.77-30.72.14-6.34.93-12.85,6.63-13.93,13.09-.99,5.89-.89,24.64-.19,30.81.71,6.29,6.76,13.72,13.18,14.63,6.36.9,25.19.81,31.72.07,6.46-.73,12.97-7.62,13.84-13.98.85-6.25.79-23.76.07-30.13ZM79.25,68.5c-.58,5.4-4.33,10.07-9.92,10.74-5.8.7-22.05.7-27.85,0-5.6-.67-9.31-5.32-9.92-10.74-.63-5.63-.68-20.64.07-26.16.68-5.02,4.16-9.58,9.25-10.62,4.32-.88,23.71-.77,28.36-.11,5.28.75,9.38,5.39,10.02,10.64.7,5.71.61,20.43-.02,26.25Z"/>
  <circle cx="70.51" cy="40.26" r="4.16"/>
  <path d="M51.51,40.94c-18.06,3.12-14.97,33.52,6.78,29.81,18.22-3.11,14.95-33.57-6.78-29.81ZM54.93,66.24c-5.77,0-10.45-4.68-10.45-10.45s4.68-10.45,10.45-10.45,10.45,4.68,10.45,10.45-4.68,10.45-10.45,10.45Z"/>
</svg>