<?xml version="1.0" encoding="UTF-8"?>
<svg id="Camada_1" data-name="Camada 1" xmlns="http://www.w3.org/2000/svg" viewBox="0 0 110.82 110.82">
  <defs>
    <style>
      .cls-1 {
        fill: #fff;
      }
    </style>
  </defs>
  <path class="cls-1" d="M26.36,85.56c-.74-.8,3.93-12.58,3.9-14.75-.02-1.73-3.25-7.22-3.7-10.55-3.43-25.39,25.97-43.16,46.39-27.26,24.08,18.75,7.88,55.79-23.02,51.7-2.82-.37-6.77-2.95-8.8-3.02-2.19-.07-14.22,4.47-14.77,3.88ZM33.53,78.38c.43.43,7.05-2.21,8.51-2.19,1.38.02,6.17,2.95,8.97,3.43,21.47,3.68,36.97-20.86,23.13-38.27-16.55-20.83-49.01-3.27-41.67,21.75.62,2.1,3.01,5.41,3.09,6.9s-2.43,7.99-2.04,8.38Z"/>
  <path class="cls-1" d="M47.75,42.66c.31.19,2.45,5.89,2.5,6.75.16,2.59-1.49,3.34-1.55,4.67-.13,2.75,6.93,8.43,9.32,9.05,2.78.72,2.82-3.39,4.7-3.76l7.37,3.18c.51,2.14-.55,4.6-2.31,5.86-9.2,6.61-28.53-10.31-27.04-20.64.42-2.89,4.18-6.88,7.02-5.11Z"/>
</svg>