<?xml version="1.0" encoding="UTF-8"?>
<svg id="Camada_1" data-name="Camada 1" xmlns="http://www.w3.org/2000/svg" xmlns:xlink="http://www.w3.org/1999/xlink" viewBox="0 0 110.82 110.82">
  <defs>
    <style>
      .cls-1 {
        fill: url(#Gradiente_sem_nome_15);
      }
    </style>
    <linearGradient id="Gradiente_sem_nome_15" data-name="Gradiente sem nome 15" x1="11.74" y1="56.48" x2="99.7" y2="56.48" gradientUnits="userSpaceOnUse">
      <stop offset="0" stop-color="#f77d2b"/>
      <stop offset="1" stop-color="#fcc300"/>
    </linearGradient>
  </defs>
  <circle class="cls-1" cx="55.72" cy="56.48" r="43.98"/>
  <g>
    <path d="M56.03,56c-5.37,3.54-.93,12.05,5.46,9.54,6.53-2.57,1.26-13.97-5.46-9.54ZM62.22,60.79c-.26,3.67-6.42,4.23-6.35-.08.06-4.3,6.66-4.29,6.35.08Z"/>
    <path d="M79.64,69.94c-.71-.41-.51-1.37-1.48-1.9-2.72-1.49-6.84-1.9-9.72-3.38-2.17,3.11-4.62,5.25-7.67,5.7.02,2.34-.62,8.02-.33,9.97.85,5.73,3.05,12.89,5.9,19.03,11.52-2.91,21.24-10.32,27.2-20.25-3.97-3.46-8.35-5.96-13.9-9.16Z"/>
    <path d="M52.65,90.67c-1.31-2.72-5.03-3.2-1.55-7.52.16-.2,1.4.01,1.29-1.02l.95-13.79c-4.56-3.14-15.25-11.55-16.12-12.85-.56-.83-4.1-12.95-4.14-14.06-.09-2.42,1.25-3.27,2.09-5.28l7.44,6.63c.82,2.04-1.52,4.23.67,6.56,3.03,3.21,5.82.54,6.88.87.73.22,3.06,3.39,3.36,3.15.59-1.44-1.92-3.8-1.77-4.71.18-1.09,3.52-1.76,2-5.73-1.58-4.11-5.54-2.4-6.55-3.43-.61-.62-3.91-7.98-3.73-8.45,1-.77,3.39-1.83,4.55-1.54,1.2.3,12.68,8.26,13.29,9.27,1.98,3.29,4.65,15.03,6.57,16.8.99.91,11.91,4.76,13.47,4.97,2.18.28,3.4-1.81,5.24-.97,1.51.69,2.48,3.17,3.83,4.31,2.63,2.24,5.06,4.09,7.34,5.9,1.35-4.25,2.09-8.78,2.09-13.48,0-24.54-19.89-44.43-44.43-44.43S10.99,31.75,10.99,56.29s19.89,44.43,44.43,44.43c.22,0,.44-.01.66-.02-1.09-3.48-1.88-6.83-3.42-10.02Z"/>
  </g>
</svg>