<?xml version="1.0" encoding="UTF-8"?>
<svg id="Camada_1" data-name="Camada 1" xmlns="http://www.w3.org/2000/svg" xmlns:xlink="http://www.w3.org/1999/xlink" viewBox="0 0 110.82 110.82">
  <defs>
    <style>
      .cls-1 {
        fill: url(#Gradiente_sem_nome_6);
      }
    </style>
    <linearGradient id="Gradiente_sem_nome_6" data-name="Gradiente sem nome 6" x1="10.99" y1="55.41" x2="99.84" y2="55.41" gradientUnits="userSpaceOnUse">
      <stop offset="0" stop-color="#f77d2b"/>
      <stop offset="1" stop-color="#fabd2c"/>
    </linearGradient>
  </defs>
  <circle class="cls-1" cx="55.41" cy="55.41" r="44.43"/>
  <g>
    <path d="M85.84,22.94v43.23h-8.61V16.67c-6.46-3.61-13.89-5.68-21.82-5.68-24.71,0-44.74,20.03-44.74,44.74,0,11.88,4.64,22.66,12.19,30.67v-16.89h62.98v19.01c8.8-8.17,14.31-19.83,14.31-32.78s-5.51-24.61-14.31-32.78ZM73.45,66.3H22.86l23.75-23.75v12.87l12.87-12.87v13.97l13.97-13.97v23.75Z"/>
    <rect x="31.17" y="82.59" width="4.89" height="4.89"/>
    <rect x="31.17" y="74.79" width="4.89" height="4.89"/>
    <rect x="47.25" y="82.65" width="4.89" height="4.89"/>
    <rect x="47.25" y="74.85" width="4.89" height="4.89"/>
    <rect x="47.25" y="90.33" width="4.89" height="4.89"/>
    <rect x="62.7" y="82.71" width="4.89" height="4.89"/>
    <rect x="62.7" y="74.91" width="4.89" height="4.89"/>
  </g>
</svg>