<?xml version="1.0" encoding="UTF-8"?>
<svg id="Camada_1" data-name="Camada 1" xmlns="http://www.w3.org/2000/svg" xmlns:xlink="http://www.w3.org/1999/xlink" viewBox="0 0 110.82 110.82">
  <defs>
    <style>
      .cls-1 {
        fill: url(#Gradiente_sem_nome_15);
      }
    </style>
    <linearGradient id="Gradiente_sem_nome_15" data-name="Gradiente sem nome 15" x1="13.37" y1="60.36" x2="99.42" y2="60.36" gradientUnits="userSpaceOnUse">
      <stop offset="0" stop-color="#f77d2b"/>
      <stop offset="1" stop-color="#fcc300"/>
    </linearGradient>
  </defs>
  <path class="cls-1" d="M99.42,58.99c0,24.54-19.47,43.94-44.01,43.94S13.37,83.96,13.37,59.42,30.88,17.8,55.41,17.8s44.01,16.66,44.01,41.2Z"/>
  <g>
    <path d="M48.31,93.88c-.51-1.91.53-3.8-.52-5.67-1.86-3.3-6.28-1.33-5.73-8.08.14-1.67,1.84-2.51,1.36-4.21-.37-1.3-10.19-16.61-11.39-18.06-1.45-1.76-3.66-2.69-4.75-4.26-1.33-1.91-1.72-6.02-2.87-8.72l-.15-.25,5.55-3.27s5.6,6.36,6.03,7.19c1.05,2.05.62,4.06,1.43,6.22.76,2.04,10.75,18.74,11.81,19.11,1.97.69,4.39-.35,6.11,2.9,1.03,1.94-.35,3.89.77,6.06,1.18,2.3,3.34,2.08,4.93,3.61.57.55,4.98,7.84,8.68,14.21,4.95-1.66,9.45-4.09,13.46-7.27l-4.82-8.09c-1.11-.62-11.21-19.45-13.16-20.5-2.39-1.28-5.9-1.3-8.6-2.46-4.25-1.84-8.02-7.87-8.48-12.36-.18-1.71-.14-10.06,2.63-8.69l6.45,10.36,9.56.35,4.16-8.62-5.98-11.17c6.68-1.75,13.94,5.92,15.27,12.08,1.5,6.88-2.84,8.68.44,16.39.3.7,7.77,12.29,10.31,16.66l.09.03c.16.35.34.69.51,1.04.08.15.15.28.19.38.51,1.03,1.08,2.03,1.66,3.02,4.18-6.77,6.6-14.75,6.6-23.3,0-24.54-19.89-44.43-44.43-44.43S10.99,34,10.99,58.53s18.78,43.29,42.35,44.37c-2.64-4.52-4.88-8.48-5.03-9.03Z"/>
    <path d="M49.01,81.08l-2.79,1.53,11.12,20.3c1.17-.05,2.32-.15,3.46-.29l-11.79-21.54Z"/>
    <path d="M72.1,65.53l-2.71,1.66,15.22,24.92c.82-.71,1.57-1.51,2.33-2.28l-14.84-24.3Z"/>
  </g>
</svg>