<?xml version="1.0" encoding="UTF-8"?>
<svg id="Camada_1" data-name="Camada 1" xmlns="http://www.w3.org/2000/svg" viewBox="0 0 110.82 110.82">
  <path d="M76.95,19.49c-6.69-4.17-13.49-5.99-21.33-6.56l-.88-.06.12,24.78s1.97-.14,3.03,1.32c1.22,1.68.08,5.02.45,7.03,13.13,2.93,23.14,15.03,21.52,28.57h-20.66c-1.49,5.08-7.61,4.66-9.3,0h-22.6c-2.05-13.79,7.88-25.17,20.89-28.6.33-2.03-1.49-8.27,3.68-8.23V12.87c-6.96.77-13.42,1.75-19.59,5.26C-.71,36.87,2.35,85.11,37.6,98.83c49.28,19.18,85.12-50.81,39.35-79.34ZM41.56,90.16l-.81-.52c-.94-.61-1.21-1.87-.6-2.82l3.46-5.33,2.51,1.63-4.57,7.04ZM56.26,89.45c0,1.12-.91,2.04-2.04,2.04h-.96v-8.4h3v6.36ZM67.47,89.63l-.81.52-4.57-7.04,2.51-1.63,3.46,5.33c.61.94.34,2.2-.6,2.82Z"/>
</svg>